<svg xmlns="http://www.w3.org/2000/svg" xmlns:xlink="http://www.w3.org/1999/xlink" width="500" zoomAndPan="magnify" viewBox="0 0 375 374.999991" height="500" preserveAspectRatio="xMidYMid meet" version="1.0"><defs><g/><clipPath id="076808ee9e"><path d="M 134 134.472656 L 196 134.472656 L 196 212 L 134 212 Z M 134 134.472656 " clip-rule="nonzero"/></clipPath><clipPath id="b6eb375b47"><path d="M 180 134.472656 L 242 134.472656 L 242 212 L 180 212 Z M 180 134.472656 " clip-rule="nonzero"/></clipPath><clipPath id="5cc9860529"><path d="M 104 161 L 271.679688 161 L 271.679688 235.722656 L 104 235.722656 Z M 104 161 " clip-rule="nonzero"/></clipPath><clipPath id="34473c544a"><path d="M 181 126 L 193 126 L 193 134.417969 L 181 134.417969 Z M 181 126 " clip-rule="nonzero"/></clipPath><clipPath id="5eece2af24"><path d="M 162.308594 85.667969 L 212.558594 85.667969 L 212.558594 134.417969 L 162.308594 134.417969 Z M 162.308594 85.667969 " clip-rule="nonzero"/></clipPath></defs><rect x="-37.5" width="450" fill="#ffffff" y="-37.499999" height="449.999989" fill-opacity="1"/><rect x="-37.5" width="450" fill="#ffffff" y="-37.499999" height="449.999989" fill-opacity="1"/><rect x="-37.5" width="450" fill="#ffffff" y="-37.499999" height="449.999989" fill-opacity="1"/><path fill="#ffffff" d="M 186.832031 207.195312 C 185.824219 207.195312 184.820312 206.832031 184.027344 206.109375 L 139.792969 165.804688 C 138.40625 164.542969 138.039062 162.507812 138.894531 160.839844 L 149.132812 140.890625 C 149.832031 139.527344 151.222656 138.660156 152.753906 138.628906 C 152.78125 138.628906 152.808594 138.628906 152.835938 138.628906 C 154.335938 138.628906 155.722656 139.4375 156.460938 140.746094 L 190.457031 201.003906 C 191.460938 202.78125 191.023438 205.023438 189.425781 206.292969 C 188.664062 206.898438 187.746094 207.195312 186.832031 207.195312 Z M 186.832031 207.195312 " fill-opacity="1" fill-rule="nonzero"/><g clip-path="url(#076808ee9e)"><path fill="#004380" d="M 152.835938 142.785156 L 186.832031 203.042969 L 142.597656 162.738281 L 152.835938 142.785156 M 152.835938 134.476562 C 152.78125 134.476562 152.726562 134.476562 152.671875 134.476562 C 149.609375 134.535156 146.828125 136.273438 145.429688 138.996094 L 135.1875 158.945312 C 133.476562 162.28125 134.214844 166.347656 136.984375 168.875 L 181.222656 209.179688 C 182.808594 210.621094 184.816406 211.351562 186.835938 211.351562 C 188.664062 211.351562 190.492188 210.753906 192.015625 209.542969 C 195.214844 207.003906 196.089844 202.519531 194.085938 198.960938 L 160.085938 138.707031 C 158.609375 136.089844 155.835938 134.476562 152.835938 134.476562 Z M 152.835938 134.476562 " fill-opacity="1" fill-rule="nonzero"/></g><path fill="#79bfea" d="M 142.597656 162.738281 L 186.832031 203.042969 L 148.851562 150.550781 Z M 142.597656 162.738281 " fill-opacity="1" fill-rule="nonzero"/><path fill="#ffffff" d="M 188.527344 207.195312 C 187.613281 207.195312 186.699219 206.898438 185.9375 206.292969 C 184.335938 205.023438 183.898438 202.78125 184.902344 201.003906 L 218.898438 140.746094 C 219.636719 139.4375 221.023438 138.628906 222.523438 138.628906 C 222.550781 138.628906 222.578125 138.628906 222.605469 138.628906 C 224.136719 138.660156 225.527344 139.527344 226.226562 140.890625 L 236.46875 160.839844 C 237.324219 162.507812 236.957031 164.542969 235.570312 165.804688 L 191.332031 206.109375 C 190.539062 206.832031 189.535156 207.195312 188.527344 207.195312 Z M 188.527344 207.195312 " fill-opacity="1" fill-rule="nonzero"/><g clip-path="url(#b6eb375b47)"><path fill="#004380" d="M 222.523438 142.785156 L 232.761719 162.738281 L 188.527344 203.042969 L 222.523438 142.785156 M 222.523438 134.476562 C 219.523438 134.476562 216.75 136.089844 215.273438 138.707031 L 181.277344 198.964844 C 179.269531 202.519531 180.144531 207.003906 183.34375 209.546875 C 184.867188 210.753906 186.699219 211.351562 188.527344 211.351562 C 190.542969 211.351562 192.554688 210.625 194.136719 209.179688 L 238.375 168.875 C 241.144531 166.347656 241.882812 162.285156 240.171875 158.949219 L 229.929688 138.996094 C 228.535156 136.273438 225.75 134.539062 222.6875 134.476562 C 222.632812 134.476562 222.578125 134.476562 222.523438 134.476562 Z M 222.523438 134.476562 " fill-opacity="1" fill-rule="nonzero"/></g><path fill="#79bfea" d="M 232.765625 162.738281 L 188.527344 203.042969 L 226.507812 150.550781 Z M 232.765625 162.738281 " fill-opacity="1" fill-rule="nonzero"/><path fill="#ffffff" d="M 186.34375 218.910156 C 185.632812 218.910156 184.914062 218.726562 184.257812 218.351562 L 114.628906 178.042969 C 113.578125 177.4375 112.84375 176.398438 112.625 175.207031 C 112.402344 174.015625 112.714844 172.785156 113.476562 171.839844 L 129.59375 151.886719 C 130.363281 150.9375 131.511719 150.371094 132.734375 150.34375 C 132.765625 150.34375 132.800781 150.34375 132.832031 150.34375 C 134.019531 150.34375 135.15625 150.851562 135.945312 151.742188 L 189.460938 212 C 190.8125 213.523438 190.859375 215.804688 189.566406 217.386719 C 188.753906 218.378906 187.558594 218.910156 186.34375 218.910156 Z M 186.34375 218.910156 " fill-opacity="1" fill-rule="nonzero"/><path fill="#004380" d="M 132.832031 154.496094 L 186.347656 214.753906 L 116.714844 174.449219 L 132.832031 154.496094 M 132.832031 146.1875 C 132.769531 146.1875 132.703125 146.1875 132.636719 146.191406 C 130.191406 146.246094 127.890625 147.378906 126.355469 149.28125 L 110.238281 169.234375 C 108.710938 171.121094 108.089844 173.578125 108.53125 175.964844 C 108.976562 178.347656 110.4375 180.421875 112.542969 181.636719 L 182.171875 221.945312 C 183.480469 222.699219 184.917969 223.066406 186.34375 223.066406 C 188.773438 223.066406 191.160156 222.003906 192.789062 220.015625 C 195.375 216.855469 195.285156 212.292969 192.574219 209.242188 L 139.0625 148.984375 C 137.480469 147.203125 135.210938 146.1875 132.832031 146.1875 Z M 132.832031 146.1875 " fill-opacity="1" fill-rule="nonzero"/><path fill="#ffffff" d="M 189.015625 218.910156 C 187.800781 218.910156 186.605469 218.378906 185.792969 217.386719 C 184.5 215.804688 184.546875 213.523438 185.902344 212 L 239.414062 151.742188 C 240.207031 150.851562 241.339844 150.34375 242.527344 150.34375 C 242.5625 150.34375 242.59375 150.34375 242.625 150.34375 C 243.847656 150.371094 245 150.9375 245.765625 151.886719 L 261.882812 171.839844 C 262.648438 172.785156 262.957031 174.015625 262.738281 175.207031 C 262.515625 176.398438 261.78125 177.4375 260.730469 178.042969 L 191.101562 218.347656 C 190.449219 218.726562 189.726562 218.910156 189.015625 218.910156 Z M 189.015625 218.910156 " fill-opacity="1" fill-rule="nonzero"/><path fill="#004380" d="M 242.527344 154.496094 L 258.644531 174.449219 L 189.015625 214.753906 L 242.527344 154.496094 M 242.527344 146.1875 C 240.148438 146.1875 237.882812 147.203125 236.300781 148.984375 L 182.785156 209.242188 C 180.078125 212.292969 179.984375 216.859375 182.570312 220.015625 C 184.199219 222.003906 186.589844 223.066406 189.019531 223.066406 C 190.441406 223.066406 191.882812 222.699219 193.1875 221.945312 L 262.820312 181.640625 C 264.921875 180.421875 266.386719 178.351562 266.828125 175.964844 C 267.269531 173.582031 266.648438 171.121094 265.125 169.234375 L 249.007812 149.28125 C 247.46875 147.378906 245.171875 146.25 242.722656 146.191406 C 242.65625 146.1875 242.59375 146.1875 242.527344 146.1875 Z M 242.527344 146.1875 " fill-opacity="1" fill-rule="nonzero"/><path fill="#009cda" d="M 177.1875 231.566406 C 176.492188 231.566406 175.808594 231.394531 175.199219 231.0625 L 110.402344 195.898438 C 109.0625 195.171875 108.230469 193.769531 108.230469 192.246094 L 108.230469 170.199219 C 108.230469 168.621094 109.121094 167.183594 110.53125 166.480469 C 111.121094 166.1875 111.757812 166.042969 112.390625 166.042969 C 113.277344 166.042969 114.15625 166.324219 114.890625 166.878906 L 178.578125 214.734375 L 196.78125 214.734375 L 260.46875 166.878906 C 261.203125 166.324219 262.082031 166.042969 262.96875 166.042969 C 263.601562 166.042969 264.238281 166.1875 264.828125 166.480469 C 266.238281 167.183594 267.132812 168.621094 267.132812 170.199219 L 267.132812 192.246094 C 267.132812 193.769531 266.296875 195.171875 264.957031 195.898438 L 200.160156 231.0625 C 199.550781 231.394531 198.867188 231.566406 198.171875 231.566406 Z M 177.1875 231.566406 " fill-opacity="1" fill-rule="nonzero"/><g clip-path="url(#5cc9860529)"><path fill="#004380" d="M 262.96875 170.199219 L 262.96875 192.246094 L 198.171875 227.410156 L 177.1875 227.410156 L 112.390625 192.246094 L 112.390625 170.199219 L 177.1875 218.890625 L 198.171875 218.890625 L 262.96875 170.199219 M 262.96875 161.886719 C 261.195312 161.886719 259.433594 162.453125 257.964844 163.558594 L 195.390625 210.578125 L 179.96875 210.578125 L 117.394531 163.558594 C 115.925781 162.453125 114.164062 161.886719 112.390625 161.886719 C 111.121094 161.886719 109.851562 162.175781 108.675781 162.761719 C 105.851562 164.167969 104.066406 167.046875 104.066406 170.199219 L 104.066406 192.246094 C 104.066406 195.292969 105.734375 198.09375 108.417969 199.550781 L 173.210938 234.710938 C 174.433594 235.375 175.796875 235.722656 177.1875 235.722656 L 198.171875 235.722656 C 199.5625 235.722656 200.929688 235.375 202.148438 234.710938 L 266.945312 199.550781 C 269.625 198.09375 271.292969 195.292969 271.292969 192.246094 L 271.292969 170.199219 C 271.292969 167.046875 269.507812 164.167969 266.683594 162.761719 C 265.507812 162.175781 264.238281 161.886719 262.96875 161.886719 Z M 262.96875 161.886719 " fill-opacity="1" fill-rule="nonzero"/></g><path fill="#0076c0" d="M 177.1875 223.660156 L 112.390625 185.359375 L 112.390625 192.246094 L 177.1875 227.410156 L 198.171875 227.410156 L 262.96875 192.246094 L 262.96875 185.359375 L 198.171875 223.660156 Z M 177.1875 223.660156 " fill-opacity="1" fill-rule="nonzero"/><path fill="#faf34a" d="M 187.433594 97.863281 C 180.332031 97.863281 174.589844 103.628906 174.589844 110.730469 C 174.589844 115.84375 177.566406 120.261719 181.890625 122.332031 L 181.890625 126.734375 L 192.992188 126.734375 L 192.992188 122.332031 C 197.304688 120.261719 200.296875 115.84375 200.296875 110.730469 C 200.28125 103.628906 194.523438 97.863281 187.433594 97.863281 Z M 187.433594 97.863281 " fill-opacity="1" fill-rule="nonzero"/><g clip-path="url(#34473c544a)"><path fill="#d3d3d3" d="M 181.875 126.75 L 181.875 131.308594 C 181.875 132.800781 183.082031 134.007812 184.570312 134.007812 L 190.285156 134.007812 C 191.773438 134.007812 192.980469 132.800781 192.980469 131.308594 L 192.980469 126.75 Z M 181.875 126.75 " fill-opacity="1" fill-rule="nonzero"/></g><g clip-path="url(#5eece2af24)"><path fill="#004380" d="M 187.433594 97.4375 C 180.117188 97.4375 174.164062 103.402344 174.164062 110.730469 C 174.164062 115.730469 177.011719 120.359375 181.464844 122.601562 L 181.464844 131.40625 C 181.464844 133.042969 182.796875 134.375 184.429688 134.375 L 190.46875 134.375 C 192.101562 134.375 193.433594 133.042969 193.433594 131.40625 L 193.433594 122.617188 C 197.871094 120.375 200.734375 115.742188 200.734375 110.746094 C 200.707031 103.402344 194.75 97.4375 187.433594 97.4375 Z M 184.65625 113.683594 C 182.699219 113.457031 181.75 112.859375 181.75 111.398438 C 181.75 110.105469 182.445312 109.507812 183.082031 109.507812 C 183.464844 109.507812 183.832031 109.707031 184.117188 110.050781 C 184.472656 110.488281 184.65625 111.140625 184.65625 111.9375 Z M 187.433594 114.648438 C 188.101562 114.648438 188.753906 114.636719 189.347656 114.609375 L 189.347656 126.324219 L 185.507812 126.324219 L 185.507812 114.609375 C 186.117188 114.636719 186.769531 114.648438 187.433594 114.648438 Z M 192.554688 127.175781 L 192.554688 128.566406 L 182.300781 128.566406 L 182.300781 127.175781 Z M 182.300781 129.421875 L 192.554688 129.421875 L 192.554688 130.8125 L 182.300781 130.8125 Z M 190.453125 133.511719 L 184.414062 133.511719 C 183.335938 133.511719 182.457031 132.699219 182.316406 131.664062 L 192.539062 131.664062 C 192.410156 132.699219 191.53125 133.511719 190.453125 133.511719 Z M 192.792969 121.949219 C 192.652344 122.019531 192.554688 122.175781 192.554688 122.332031 L 192.554688 126.308594 L 190.199219 126.308594 L 190.199219 114.535156 C 192.410156 114.296875 193.957031 113.570312 193.957031 111.382812 C 193.957031 109.59375 192.851562 108.644531 191.773438 108.644531 C 191.136719 108.644531 190.511719 108.957031 190.070312 109.507812 C 189.605469 110.105469 189.347656 110.945312 189.347656 111.921875 L 189.347656 113.742188 C 188.78125 113.769531 188.128906 113.785156 187.433594 113.785156 C 186.738281 113.785156 186.085938 113.769531 185.519531 113.742188 L 185.519531 111.921875 C 185.519531 110.945312 185.265625 110.105469 184.796875 109.507812 C 184.359375 108.957031 183.734375 108.644531 183.097656 108.644531 C 182.003906 108.644531 180.914062 109.582031 180.914062 111.382812 C 180.914062 113.570312 182.457031 114.296875 184.667969 114.535156 L 184.667969 126.324219 L 182.300781 126.324219 L 182.300781 122.347656 C 182.300781 122.175781 182.203125 122.035156 182.0625 121.964844 C 177.777344 119.90625 175 115.503906 175 110.746094 C 175 103.886719 180.570312 98.304688 187.421875 98.304688 C 194.269531 98.304688 199.839844 103.886719 199.839844 110.746094 C 199.855469 115.488281 197.089844 119.890625 192.792969 121.949219 Z M 190.199219 113.683594 L 190.199219 111.9375 C 190.199219 111.140625 190.382812 110.488281 190.738281 110.050781 C 191.023438 109.695312 191.390625 109.507812 191.773438 109.507812 C 192.410156 109.507812 193.105469 110.105469 193.105469 111.398438 C 193.105469 112.859375 192.171875 113.457031 190.199219 113.683594 Z M 187.859375 86.132812 L 187.859375 93.5625 C 187.859375 93.800781 187.675781 93.988281 187.433594 93.988281 C 187.195312 93.988281 187.007812 93.800781 187.007812 93.5625 L 187.007812 86.132812 C 187.007812 85.890625 187.195312 85.707031 187.433594 85.707031 C 187.675781 85.707031 187.859375 85.890625 187.859375 86.132812 Z M 170.265625 110.902344 L 162.734375 110.902344 C 162.492188 110.902344 162.308594 110.714844 162.308594 110.476562 C 162.308594 110.234375 162.492188 110.050781 162.734375 110.050781 L 170.265625 110.050781 C 170.503906 110.050781 170.691406 110.234375 170.691406 110.476562 C 170.691406 110.714844 170.503906 110.902344 170.265625 110.902344 Z M 212.558594 110.476562 C 212.558594 110.714844 212.375 110.902344 212.132812 110.902344 L 204.605469 110.902344 C 204.363281 110.902344 204.179688 110.714844 204.179688 110.476562 C 204.179688 110.234375 204.363281 110.050781 204.605469 110.050781 L 212.132812 110.050781 C 212.359375 110.050781 212.558594 110.234375 212.558594 110.476562 Z M 175.59375 98.203125 C 175.765625 98.375 175.765625 98.644531 175.59375 98.800781 C 175.511719 98.886719 175.398438 98.929688 175.296875 98.929688 C 175.183594 98.929688 175.085938 98.886719 175 98.800781 L 169.667969 93.546875 C 169.5 93.375 169.5 93.105469 169.667969 92.949219 C 169.839844 92.78125 170.109375 92.78125 170.265625 92.949219 Z M 205.199219 127.390625 C 205.371094 127.558594 205.371094 127.828125 205.199219 127.984375 C 205.117188 128.070312 205.003906 128.113281 204.902344 128.113281 C 204.789062 128.113281 204.691406 128.070312 204.605469 127.984375 L 199.273438 122.730469 C 199.105469 122.5625 199.105469 122.289062 199.273438 122.132812 C 199.445312 121.964844 199.714844 121.964844 199.871094 122.132812 Z M 175.59375 122.132812 C 175.765625 122.304688 175.75 122.574219 175.59375 122.730469 L 170.265625 127.984375 C 170.179688 128.070312 170.078125 128.113281 169.964844 128.113281 C 169.851562 128.113281 169.738281 128.070312 169.667969 127.984375 C 169.5 127.816406 169.511719 127.546875 169.667969 127.390625 L 175 122.132812 C 175.171875 121.964844 175.4375 121.964844 175.59375 122.132812 Z M 199.261719 98.816406 C 199.089844 98.644531 199.105469 98.375 199.261719 98.21875 L 204.589844 92.964844 C 204.761719 92.792969 205.03125 92.808594 205.1875 92.964844 C 205.355469 93.136719 205.34375 93.40625 205.1875 93.5625 L 199.855469 98.816406 C 199.769531 98.902344 199.671875 98.941406 199.558594 98.941406 C 199.457031 98.941406 199.34375 98.902344 199.261719 98.816406 Z M 181.238281 94.65625 C 181.324219 94.867188 181.222656 95.121094 181.011719 95.207031 C 180.953125 95.238281 180.898438 95.238281 180.839844 95.238281 C 180.671875 95.238281 180.515625 95.136719 180.445312 94.980469 L 179.097656 91.785156 C 179.011719 91.574219 179.113281 91.316406 179.324219 91.230469 C 179.539062 91.148438 179.792969 91.246094 179.878906 91.460938 Z M 171.710938 117.347656 L 168.464844 118.667969 C 168.40625 118.699219 168.351562 118.699219 168.308594 118.699219 C 168.136719 118.699219 167.980469 118.597656 167.910156 118.429688 C 167.824219 118.214844 167.925781 117.960938 168.136719 117.875 L 171.382812 116.554688 C 171.597656 116.46875 171.851562 116.566406 171.9375 116.78125 C 172.023438 117.023438 171.921875 117.261719 171.710938 117.347656 Z M 203.160156 103.601562 L 206.40625 102.28125 C 206.617188 102.195312 206.875 102.292969 206.960938 102.507812 C 207.042969 102.722656 206.945312 102.976562 206.730469 103.0625 L 203.484375 104.382812 C 203.429688 104.410156 203.371094 104.410156 203.328125 104.410156 C 203.160156 104.410156 203.003906 104.3125 202.933594 104.140625 C 202.832031 103.929688 202.945312 103.6875 203.160156 103.601562 Z M 195.742188 91.785156 L 194.398438 94.980469 C 194.324219 95.136719 194.167969 95.238281 194 95.238281 C 193.941406 95.238281 193.886719 95.222656 193.828125 95.207031 C 193.617188 95.121094 193.515625 94.867188 193.601562 94.65625 L 194.949219 91.460938 C 195.035156 91.246094 195.289062 91.148438 195.503906 91.230469 C 195.742188 91.316406 195.84375 91.558594 195.742188 91.785156 Z M 167.910156 102.507812 C 167.996094 102.292969 168.25 102.179688 168.464844 102.28125 L 171.710938 103.601562 C 171.921875 103.6875 172.035156 103.941406 171.9375 104.15625 C 171.867188 104.324219 171.710938 104.425781 171.539062 104.425781 C 171.484375 104.425781 171.425781 104.410156 171.382812 104.398438 L 168.136719 103.074219 C 167.925781 102.960938 167.8125 102.722656 167.910156 102.507812 Z M 206.960938 118.441406 C 206.886719 118.613281 206.730469 118.710938 206.5625 118.710938 C 206.503906 118.710938 206.449219 118.699219 206.40625 118.683594 L 203.160156 117.363281 C 202.945312 117.277344 202.832031 117.023438 202.933594 116.808594 C 203.015625 116.597656 203.273438 116.480469 203.484375 116.582031 L 206.730469 117.902344 C 206.945312 117.988281 207.042969 118.230469 206.960938 118.441406 Z M 206.960938 118.441406 " fill-opacity="1" fill-rule="nonzero"/></g><g fill="#004380" fill-opacity="1"><g transform="translate(124.182139, 273.739362)"><g><path d="M 2.515625 0 L 2.515625 -22.484375 L 10.671875 -22.484375 C 13.609375 -22.484375 15.789062 -21.976562 17.21875 -20.96875 C 18.644531 -19.957031 19.359375 -18.5 19.359375 -16.59375 C 19.359375 -15.46875 19.070312 -14.492188 18.5 -13.671875 C 17.925781 -12.847656 16.910156 -12.128906 15.453125 -11.515625 C 16.398438 -11.273438 17.160156 -10.953125 17.734375 -10.546875 C 18.316406 -10.148438 18.765625 -9.703125 19.078125 -9.203125 C 19.390625 -8.710938 19.601562 -8.203125 19.71875 -7.671875 C 19.832031 -7.140625 19.890625 -6.613281 19.890625 -6.09375 C 19.890625 -4.019531 19.179688 -2.484375 17.765625 -1.484375 C 16.359375 -0.492188 14.113281 0 11.03125 0 Z M 7.046875 -3.515625 L 11.125 -3.515625 C 12.5 -3.515625 13.535156 -3.785156 14.234375 -4.328125 C 14.929688 -4.878906 15.28125 -5.617188 15.28125 -6.546875 C 15.28125 -7.210938 15.109375 -7.769531 14.765625 -8.21875 C 14.421875 -8.664062 13.957031 -9.003906 13.375 -9.234375 C 12.789062 -9.460938 12.125 -9.578125 11.375 -9.578125 L 7.046875 -9.578125 Z M 7.046875 -13.1875 L 11.375 -13.1875 C 11.84375 -13.1875 12.289062 -13.238281 12.71875 -13.34375 C 13.15625 -13.457031 13.539062 -13.625 13.875 -13.84375 C 14.207031 -14.070312 14.472656 -14.363281 14.671875 -14.71875 C 14.867188 -15.082031 14.96875 -15.507812 14.96875 -16 C 14.96875 -16.96875 14.601562 -17.703125 13.875 -18.203125 C 13.144531 -18.710938 12.207031 -18.96875 11.0625 -18.96875 L 7.046875 -18.96875 Z M 7.046875 -13.1875 "/></g></g></g><g fill="#004380" fill-opacity="1"><g transform="translate(145.463262, 273.739362)"><g><path d="M 8.84375 0.3125 C 7.269531 0.3125 5.898438 -0.0195312 4.734375 -0.6875 C 3.566406 -1.363281 2.664062 -2.316406 2.03125 -3.546875 C 1.394531 -4.785156 1.078125 -6.25 1.078125 -7.9375 C 1.078125 -9.632812 1.394531 -11.113281 2.03125 -12.375 C 2.664062 -13.632812 3.566406 -14.617188 4.734375 -15.328125 C 5.898438 -16.035156 7.273438 -16.390625 8.859375 -16.390625 C 10.441406 -16.390625 11.8125 -16.039062 12.96875 -15.34375 C 14.132812 -14.65625 15.035156 -13.679688 15.671875 -12.421875 C 16.304688 -11.160156 16.625 -9.664062 16.625 -7.9375 C 16.625 -6.320312 16.3125 -4.894531 15.6875 -3.65625 C 15.070312 -2.414062 14.1875 -1.441406 13.03125 -0.734375 C 11.875 -0.0351562 10.476562 0.3125 8.84375 0.3125 Z M 8.859375 -3.0625 C 9.660156 -3.0625 10.300781 -3.296875 10.78125 -3.765625 C 11.269531 -4.234375 11.625 -4.847656 11.84375 -5.609375 C 12.070312 -6.367188 12.1875 -7.195312 12.1875 -8.09375 C 12.1875 -8.945312 12.082031 -9.75 11.875 -10.5 C 11.675781 -11.257812 11.332031 -11.875 10.84375 -12.34375 C 10.363281 -12.8125 9.703125 -13.046875 8.859375 -13.046875 C 8.066406 -13.046875 7.421875 -12.820312 6.921875 -12.375 C 6.429688 -11.9375 6.070312 -11.34375 5.84375 -10.59375 C 5.613281 -9.84375 5.5 -9.007812 5.5 -8.09375 C 5.5 -7.257812 5.601562 -6.457031 5.8125 -5.6875 C 6.019531 -4.914062 6.367188 -4.285156 6.859375 -3.796875 C 7.347656 -3.304688 8.015625 -3.0625 8.859375 -3.0625 Z M 8.859375 -3.0625 "/></g></g></g><g fill="#004380" fill-opacity="1"><g transform="translate(163.153481, 273.739362)"><g><path d="M 8.84375 0.3125 C 7.269531 0.3125 5.898438 -0.0195312 4.734375 -0.6875 C 3.566406 -1.363281 2.664062 -2.316406 2.03125 -3.546875 C 1.394531 -4.785156 1.078125 -6.25 1.078125 -7.9375 C 1.078125 -9.632812 1.394531 -11.113281 2.03125 -12.375 C 2.664062 -13.632812 3.566406 -14.617188 4.734375 -15.328125 C 5.898438 -16.035156 7.273438 -16.390625 8.859375 -16.390625 C 10.441406 -16.390625 11.8125 -16.039062 12.96875 -15.34375 C 14.132812 -14.65625 15.035156 -13.679688 15.671875 -12.421875 C 16.304688 -11.160156 16.625 -9.664062 16.625 -7.9375 C 16.625 -6.320312 16.3125 -4.894531 15.6875 -3.65625 C 15.070312 -2.414062 14.1875 -1.441406 13.03125 -0.734375 C 11.875 -0.0351562 10.476562 0.3125 8.84375 0.3125 Z M 8.859375 -3.0625 C 9.660156 -3.0625 10.300781 -3.296875 10.78125 -3.765625 C 11.269531 -4.234375 11.625 -4.847656 11.84375 -5.609375 C 12.070312 -6.367188 12.1875 -7.195312 12.1875 -8.09375 C 12.1875 -8.945312 12.082031 -9.75 11.875 -10.5 C 11.675781 -11.257812 11.332031 -11.875 10.84375 -12.34375 C 10.363281 -12.8125 9.703125 -13.046875 8.859375 -13.046875 C 8.066406 -13.046875 7.421875 -12.820312 6.921875 -12.375 C 6.429688 -11.9375 6.070312 -11.34375 5.84375 -10.59375 C 5.613281 -9.84375 5.5 -9.007812 5.5 -8.09375 C 5.5 -7.257812 5.601562 -6.457031 5.8125 -5.6875 C 6.019531 -4.914062 6.367188 -4.285156 6.859375 -3.796875 C 7.347656 -3.304688 8.015625 -3.0625 8.859375 -3.0625 Z M 8.859375 -3.0625 "/></g></g></g><g fill="#004380" fill-opacity="1"><g transform="translate(180.8437, 273.739362)"><g><path d="M 17.46875 0 L 12.953125 0 L 8.609375 -6.9375 L 6.484375 -4.65625 L 6.484375 0 L 1.9375 0 L 1.9375 -23.109375 L 6.484375 -23.109375 L 6.484375 -9.40625 L 12.390625 -16.078125 L 17.265625 -16.078125 L 11.421875 -9.671875 Z M 17.46875 0 "/></g></g></g><g fill="#004380" fill-opacity="1"><g transform="translate(198.906995, 273.739362)"><g><path d="M 6.515625 -16.078125 L 6.515625 0 L 2.171875 0 L 2.171875 -16.078125 Z M 6.5625 -22.46875 L 6.5625 -18.375 L 2.140625 -18.375 L 2.140625 -22.46875 Z M 6.5625 -22.46875 "/></g></g></g><g fill="#faf34a" fill-opacity="1"><g transform="translate(208.153526, 273.739362)"><g><path d="M 11.75 -16.078125 L 11.75 -12.921875 L 8.359375 -12.921875 L 8.359375 0 L 3.828125 0 L 3.828125 -12.921875 L 0.859375 -12.921875 L 0.859375 -16.078125 L 3.828125 -16.078125 L 3.828125 -18.390625 C 3.828125 -19.679688 4.207031 -20.6875 4.96875 -21.40625 C 5.726562 -22.125 6.804688 -22.484375 8.203125 -22.484375 L 11.890625 -22.484375 L 11.90625 -19.46875 L 9.796875 -19.46875 C 9.210938 -19.46875 8.8125 -19.320312 8.59375 -19.03125 C 8.382812 -18.75 8.28125 -18.28125 8.28125 -17.625 L 8.28125 -16.078125 Z M 11.75 -16.078125 "/></g></g></g><g fill="#faf34a" fill-opacity="1"><g transform="translate(220.620627, 273.739362)"><g><path d="M 4.453125 5.125 C 3.347656 5.125 2.570312 5.035156 2.125 4.859375 C 1.675781 4.679688 1.453125 4.59375 1.453125 4.59375 L 1.453125 1.6875 L 3.03125 1.75 C 3.726562 1.789062 4.285156 1.757812 4.703125 1.65625 C 5.128906 1.550781 5.453125 1.410156 5.671875 1.234375 C 5.898438 1.054688 6.0625 0.867188 6.15625 0.671875 C 6.25 0.484375 6.316406 0.332031 6.359375 0.21875 L 6.65625 -0.671875 L 0.40625 -16.078125 L 4.890625 -16.078125 L 8.75 -5.59375 L 12.65625 -16.078125 L 17.078125 -16.078125 L 10.578125 0.09375 C 10.015625 1.457031 9.421875 2.503906 8.796875 3.234375 C 8.171875 3.960938 7.5 4.457031 6.78125 4.71875 C 6.0625 4.988281 5.285156 5.125 4.453125 5.125 Z M 4.453125 5.125 "/></g></g></g></svg>